<svg xmlns="http://www.w3.org/2000/svg" viewBox="0 0 2503.25 2762.69"><defs><style>.\33 ad5acb5-d8d8-49a4-9697-57690dcd80e5{fill:#00afee;}.\38 20759ac-2311-4c49-847d-a60168bfe90d{fill:#3f4095;stroke:#00afee;stroke-miterlimit:10;}.\31 3a62097-292f-410a-8578-93c4d615a605{fill:#fef012;}</style></defs><title>Asset 8</title><g id="5143c0ff-ff2c-41e4-a1fc-e051dfe563d1" data-name="Layer 2"><g id="cd3d5b4c-8468-4019-8977-6d357cdba26d" data-name="Layer 1"><g id="5dea5227-605a-45cd-a81e-f23b48e5888a" data-name="barras1"><path class="3ad5acb5-d8d8-49a4-9697-57690dcd80e5" d="M518.9,1928.86l80-129h303c195.8-2.21,371.11,13.88,524,50C1093.74,1834.84,784.27,1851.28,518.9,1928.86Z" transform="translate(-231.17 -168.36)"/><path class="820759ac-2311-4c49-847d-a60168bfe90d" d="M604.9,1786.86l43-85c323.15-1.78,587.67,43.4,778,148-250.72-64.84-523.63-90.76-826-65" transform="translate(-231.17 -168.36)"/></g><g id="f2bbc0d6-8593-46c0-a81d-9f771b743143" data-name="barras2"><path class="3ad5acb5-d8d8-49a4-9697-57690dcd80e5" d="M2457.4,1928.86l-80-129h-303c-195.81-2.21-371.12,13.88-524,50C1882.55,1834.84,2192,1851.28,2457.4,1928.86Z" transform="translate(-231.17 -168.36)"/><path class="820759ac-2311-4c49-847d-a60168bfe90d" d="M2371.4,1786.86l-43-85c-323.16-1.78-587.68,43.4-778,148,250.71-64.84,523.62-90.76,826-65" transform="translate(-231.17 -168.36)"/></g><path class="13a62097-292f-410a-8578-93c4d615a605" d="M1972,1292c-82.16-99.31-183-166.43-300-205.49-135.54-41.26-284.54-42.73-448.48,0C1101.08,1131.62,1017.37,1203.75,961,1295c-70.46,124.25-94.34,251.52-61.49,382.48,111.37,32.54,220.88,56.83,327,66q-21-144.75-156-244.49C1176.7,1488.31,1254.6,1428,1309,1326.46c138.18,76.58,249.66,75.35,328.48-21C1718,1420.07,1808.88,1478.67,1909,1487c-73,72.31-123,158.74-154.5,256.49,90.19-11.11,174.83-29.23,249.43-60C2074.88,1558.14,2072.42,1428.17,1972,1292Zm-835.73,129.89a69.76,69.76,0,1,1,69.76-69.76A69.76,69.76,0,0,1,1136.23,1421.85Zm332.7-85.76a90.74,90.74,0,1,1,90.75-90.74A90.74,90.74,0,0,1,1468.93,1336.09Zm350.43,78.76a69.76,69.76,0,1,1,69.76-69.76A69.76,69.76,0,0,1,1819.36,1414.85Z" transform="translate(-231.17 -168.36)"/><g id="2e63474e-75fb-434c-84d5-efcd0a266311" data-name="2 palitos do meio"><path class="13a62097-292f-410a-8578-93c4d615a605" d="M1396,1714.94q7.5-161.25-51-322.49C1328,1515.44,1346.88,1622.09,1396,1714.94Z" transform="translate(-231.17 -168.36)"/><path class="13a62097-292f-410a-8578-93c4d615a605" d="M1579.24,1701.81q-7.5-161.25,51-322.49C1647.21,1502.31,1628.34,1609,1579.24,1701.81Z" transform="translate(-231.17 -168.36)"/></g><g id="57a17e1a-29cf-4d4b-9ee4-e32704476583" data-name="Stars"><polygon class="13a62097-292f-410a-8578-93c4d615a605" points="187.31 1300.8 218.34 1363.67 287.73 1373.75 237.52 1422.69 249.37 1491.8 187.31 1459.17 125.25 1491.8 137.1 1422.69 86.89 1373.75 156.28 1363.67 187.31 1300.8"/><polygon class="13a62097-292f-410a-8578-93c4d615a605" points="2329.1 1300.8 2360.13 1363.67 2429.51 1373.75 2379.3 1422.69 2391.16 1491.8 2329.1 1459.17 2267.03 1491.8 2278.89 1422.69 2228.68 1373.75 2298.07 1363.67 2329.1 1300.8"/></g><g id="a3170f92-4aff-463a-bea1-bb17dbcc9ac9" data-name="Sun"><path class="13a62097-292f-410a-8578-93c4d615a605" d="M839.9,1603.63c-39.15,66.7-101,31.07-168-28C752.06,1549.58,824.87,1534.29,839.9,1603.63Z" transform="translate(-231.17 -168.36)"/><path class="13a62097-292f-410a-8578-93c4d615a605" d="M1086.38,1086.11c-74.56,20.56-94.07-48.08-101-137.16C1061,986.13,1123.92,1025.91,1086.38,1086.11Z" transform="translate(-231.17 -168.36)"/><path class="13a62097-292f-410a-8578-93c4d615a605" d="M900.74,1310.61c-61.5,46.88-105.21-9.53-144.84-89.6C840,1227.29,913.13,1240.75,900.74,1310.61Z" transform="translate(-231.17 -168.36)"/><path class="13a62097-292f-410a-8578-93c4d615a605" d="M1443.93,1013.66c-73-25.41-50.13-93-5.25-170.24C1479.85,917,1509,985.42,1443.93,1013.66Z" transform="translate(-231.17 -168.36)"/><path class="13a62097-292f-410a-8578-93c4d615a605" d="M1781.33,1053.93c-48.33-60.38,7-105.41,86.13-146.94C1863.18,991.17,1851.47,1064.65,1781.33,1053.93Z" transform="translate(-231.17 -168.36)"/><path class="13a62097-292f-410a-8578-93c4d615a605" d="M2023.59,1274c-5.48-77.14,65.66-82.76,154.35-72C2126.59,1268.89,2075.22,1322.71,2023.59,1274Z" transform="translate(-231.17 -168.36)"/><path class="13a62097-292f-410a-8578-93c4d615a605" d="M2114.87,1603.53c25.68-73,93.18-49.79,170.25-4.61C2211.41,1639.81,2142.86,1668.72,2114.87,1603.53Z" transform="translate(-231.17 -168.36)"/></g><path d="M804.43,688.67,659.9,364.44l66-29.42,120,269.15L1010,531l24.56,55.08Z" transform="translate(-231.17 -168.36)"/><path d="M1071.23,581.73,979.09,235.89l69.83-18.61,92.14,345.85Z" transform="translate(-231.17 -168.36)"/><path d="M1410,394.61,1481.67,411q-11.24,59.72-46.25,91.15T1343,538.3q-71.06,5.87-120.8-38.9T1165.5,370.45q-7.35-89.05,34.57-142.12t116.86-59.25q65.44-5.4,109.52,29.91,26.22,20.87,41.92,62.68l-69.89,22.92q-8.61-27.22-30-41.62t-50.11-12q-39.66,3.27-62,33.78T1239.27,359q5.58,67.65,32.28,94.34t65.63,23.49q28.71-2.37,47.89-22.32T1410,394.61Z" transform="translate(-231.17 -168.36)"/><path d="M1532.87,524.56l57.81-353.21,261.9,42.86L1842.8,274l-190.58-31.19-12.82,78.31,177.33,29L1807,409.61l-177.33-29-15.73,96.13L1811.26,509l-9.74,59.51Z" transform="translate(-231.17 -168.36)"/><path d="M1983.64,251.54l66.26,28.84-77.36,177.74q-18.42,42.31-21.41,55.92a57.87,57.87,0,0,0,6.18,41.17q10.68,19.15,38.45,31.24,28.2,12.28,47.55,7t29.56-20.82q10.22-15.52,27.18-54.47l79-181.55,66.27,28.84-75,172.37q-25.73,59.1-41.71,81.16t-37.74,32.57q-21.75,10.5-50.26,9.94T1973.12,644q-47-20.46-66.57-41.89t-26.11-44.92q-6.56-23.49-2.75-44.46,5.79-31,29.75-86.1Z" transform="translate(-231.17 -168.36)"/><path d="M231.17,2261.84,503.79,2049.2l157.66,202.14-46.12,36L500.6,2140.21l-60.44,47.15,106.76,136.86L501,2360.05,394.23,2223.18,320,2281.06l118.8,152.3-45.94,35.82Z" transform="translate(-231.17 -168.36)"/><path d="M683.45,2274.5l110.7,82.73q32.88,24.55,47,39.37a90,90,0,0,1,20.36,33,88.83,88.83,0,0,1,4,39q-2.3,20.81-15.71,38.75a82,82,0,0,1-83.81,31q19.8,26.28,20.14,54.21t-17.6,51.92a102.83,102.83,0,0,1-36.25,30.17q-22.12,11.3-45.31,10.6t-47.31-14.89q-15.11-8.94-68.85-48.52l-94.27-70.45Zm-60.84,198-55.34,74.05L619,2585.25q30.22,22.59,39.62,27,14.16,7.07,28.57,4.13t25.42-17.66q9.32-12.46,9.76-25.68t-8-25.71q-8.48-12.51-46.63-41Zm82.31-110.14-47.86,64,36.65,27.39q32.68,24.42,41.32,29.41,15.63,9,30,7t24.38-15.49q9.6-12.84,8.52-26.17T784.13,2423q-7.62-7.15-47.09-36.66Z" transform="translate(-231.17 -168.36)"/><path d="M812.55,2779l126-322,238.74,93.4-21.31,54.47-173.73-68-27.92,71.38,161.65,63.24-21.23,54.25-161.65-63.24-34.28,87.63,179.88,70.37-21.23,54.25Z" transform="translate(-231.17 -168.36)"/><path d="M1172.55,2902.86,1208.08,2559l67.57,7,117,244.2,23.73-229.66,64.51,6.67-35.53,343.91-69.68-7.2-115.47-238.6-23.17,224.27Z" transform="translate(-231.17 -168.36)"/><path d="M1576.57,2926l-55.94-341.18,253-41.48,9.46,57.72L1599,2631.19l12.4,75.64,171.29-28.09,9.42,57.49-171.29,28.08,15.23,92.86,190.6-31.25,9.43,57.49Z" transform="translate(-231.17 -168.36)"/><path d="M1916.1,2860.5l-25.17-57.72,76.79-278.18L1820.07,2589l-23.38-53.61,232-101.17,21.68,49.72L1970,2773.45l180.29-78.63,23.29,53.39Z" transform="translate(-231.17 -168.36)"/><path d="M2256.69,2697.08l-211.5-273.51L2248,2266.75l35.78,46.27-147.57,114.12,46.89,60.63,137.31-106.18,35.64,46.08-137.32,106.18,57.57,74.44,152.79-118.16,35.64,46.08Z" transform="translate(-231.17 -168.36)"/><path d="M2547.3,2453l-276.08-208.12,88.45-117.33q33.36-44.25,55.92-58.7t50.66-12.16q28.11,2.28,52.59,20.74,31.07,23.43,37.55,57t-15.66,73.85q24.18-10.12,45.67-12.38t68.74,2.05l79.27,6.89-50.25,66.67-90.46-5q-48.39-2.8-62.73-1.21t-24.12,8.1q-9.78,6.51-24.26,25.72l-8.52,11.3,115.25,86.88ZM2430,2277.14l31.09-41.25q30.24-40.11,34.38-52.65a37.6,37.6,0,0,0,.1-24.43q-4-11.89-16.45-21.27Q2465.19,2127,2451,2128t-26.65,12.83q-6.06,6.08-31.61,40l-32.79,43.5Z" transform="translate(-231.17 -168.36)"/></g></g></svg>